PathFileType  4	(X/Y/Z) C:\Users\antoi\Documents\MyRepositories\mobilecap\ResultsAnalysis
DataRate	CameraRate	NumFrames	NumMarkers	Units	OrigDataRate	OrigDataStartFrame	OrigNumFrames
100.0	100.0	6	51	mm	100.0	1	135
Frame#	Time	r_knee			r_shank_antsup			r_ankle			r_calc			r_5meta			r_toe			L_knee			L_shank_antsup			L_ankle			L_calc			L_5meta			L_toe			r_sh2			r_sh3			r_sh4			L_sh2			L_sh3			r_thigh1			r_thigh2			r_thigh3			r_thigh4			r_thigh5			L_thigh1			L_thigh2			L_thigh3			L_thigh4			r.ASIS			r.PSIS			L.ASIS			L.PSIS			C7			R_Shoulder			L_Shoulder			R_Sternum			L_Sternum			R_humerus			R_elbow_med			R_elbow_lat			R_forearm			R_wrist_radius			R_wrist_ulna			L_humerus			L_elbow_med			L_elbow_lat			L_forearm			L_wrist_radius			L_wrist_ulna			R_HJC			L_HJC			R_HJC_reg			L_HJC_reg			
		X1	Y1	Z1	X2	Y2	Z2	X3	Y3	Z3	X4	Y4	Z4	X5	Y5	Z5	X6	Y6	Z6	X7	Y7	Z7	X8	Y8	Z8	X9	Y9	Z9	X10	Y10	Z10	X11	Y11	Z11	X12	Y12	Z12	X13	Y13	Z13	X14	Y14	Z14	X15	Y15	Z15	X16	Y16	Z16	X17	Y17	Z17	X18	Y18	Z18	X19	Y19	Z19	X20	Y20	Z20	X21	Y21	Z21	X22	Y22	Z22	X23	Y23	Z23	X24	Y24	Z24	X25	Y25	Z25	X26	Y26	Z26	X27	Y27	Z27	X28	Y28	Z28	X29	Y29	Z29	X30	Y30	Z30	X31	Y31	Z31	X32	Y32	Z32	X33	Y33	Z33	X34	Y34	Z34	X35	Y35	Z35	X36	Y36	Z36	X37	Y37	Z37	X38	Y38	Z38	X39	Y39	Z39	X40	Y40	Z40	X41	Y41	Z41	X42	Y42	Z42	X43	Y43	Z43	X44	Y44	Z44	X45	Y45	Z45	X46	Y46	Z46	X47	Y47	Z47	X48	Y48	Z48	X49	Y49	Z49	X50	Y50	Z50	X51	Y51	Z51	

1	0.00000000	120.29411	491.73978	-49.39721	182.01730	445.73294	-61.94830	243.14174	105.01439	-42.99893	190.14450	54.89343	-76.62109	364.52031	79.24417	-18.65248	397.69450	125.05742	-72.45334	-187.71507	474.33926	-366.96692	-199.62426	372.31243	-377.00622	-396.57649	127.38006	-360.58491	-473.40985	101.84971	-315.88843	-318.19042	43.76721	-413.92284	-267.91093	56.32212	-360.50583	198.74950	333.65647	-32.80184	103.97271	431.90366	-36.05661	125.20906	321.20307	-27.21403	-274.72578	422.73806	-379.55196	-332.04237	314.60288	-387.25646	40.64936	800.47946	-35.27118	83.52041	695.51558	-35.62761	35.96904	656.37771	-7.96840	-64.14723	756.93600	-20.64046	-17.17430	649.07817	-24.71156	-81.37368	721.62112	-412.03453	-108.74941	590.32741	-387.04502	-184.35922	747.49166	-366.77059	-209.47743	609.37086	-352.66992	19.62011	934.12030	-86.75621	-170.09259	969.23685	-159.98692	23.01272	905.97728	-338.04337	-176.82308	973.15254	-260.73443	-141.05266	1384.79215	-263.09910	-72.56830	1352.91511	-70.04131	-38.22082	1335.40829	-425.62080	-8.91484	1339.64517	-221.20955	1.94548	1337.21258	-264.15541	-102.78138	1228.99106	7.16939	-183.05945	1021.86192	-20.85764	-182.78606	1047.89018	47.51811	-96.76187	938.99752	90.16647	-40.05974	818.14278	117.12849	-70.48039	808.44100	130.48228	9.71560	1228.76636	-478.02223	6.73584	986.34694	-449.53271	43.55739	1021.84907	-511.10737	142.41652	969.09966	-479.99163	253.38703	859.95842	-458.07347	239.03558	845.35353	-487.73798	-58.21272	853.83059	-102.28638	-62.58800	839.76695	-308.23041	-44.79246	840.97165	-120.03706	-55.90912	847.43972	-286.44046	
2	0.01000000	133.73294	492.26455	-46.87633	195.33133	444.73263	-59.77284	248.48003	102.81700	-42.76647	193.27398	56.94718	-77.45164	367.87194	72.30413	-18.80337	403.40153	116.63938	-72.43099	-172.80335	472.62818	-364.74846	-187.30111	370.98312	-375.36684	-391.63691	132.41735	-360.19236	-469.23175	110.15144	-315.53792	-317.03706	44.92586	-413.62565	-266.13684	55.76879	-360.58742	210.09828	332.15793	-31.13122	117.04017	432.05103	-33.25142	136.17143	320.96959	-25.55513	-260.61557	423.58665	-377.54445	-321.48434	317.48867	-385.75915	55.58920	801.82697	-33.33639	98.39324	696.81344	-33.46336	51.23081	657.47009	-5.43408	-49.28181	758.57185	-17.45999	-3.11447	650.66347	-21.48526	-67.81770	720.15813	-409.59626	-94.44433	588.66643	-384.82333	-170.31571	745.55238	-363.29070	-195.15628	607.41939	-349.73112	33.78648	934.52786	-84.95943	-156.45001	969.21991	-157.77072	36.51085	904.55952	-336.22321	-163.15577	971.88661	-258.51568	-127.47441	1384.11207	-258.98202	-59.18382	1350.47967	-66.10224	-24.49762	1335.82434	-421.85958	4.49124	1338.92734	-217.26558	15.49456	1336.90228	-260.17554	-88.82539	1225.77220	10.09162	-168.62974	1018.75652	-19.72063	-168.59759	1044.22655	48.74945	-83.87987	934.57894	91.45506	-28.41939	813.01702	117.92769	-59.09214	803.48511	131.04299	23.34624	1229.21423	-474.28398	19.87564	986.76896	-446.31094	55.72452	1022.21218	-508.53051	154.95241	969.30251	-477.87455	265.87808	860.10357	-456.33995	251.38027	845.47894	-485.89791	-44.00993	854.11735	-99.64177	-49.03991	838.47569	-305.44447	-31.17292	841.72332	-117.20323	-42.26023	846.12617	-283.78373	
3	0.02000000	147.28752	492.84035	-44.40098	208.45609	443.69636	-57.68302	253.56935	100.73195	-42.57186	196.27322	58.89675	-78.24121	371.01800	65.71468	-18.93709	408.78928	108.51421	-72.44351	-157.26481	470.85291	-362.54933	-174.42067	369.63807	-373.74384	-386.18249	137.73620	-359.71949	-464.45859	118.97165	-315.03974	-315.73361	46.29227	-413.23735	-264.24245	55.21340	-360.61426	221.25895	330.67057	-29.50905	130.00973	432.25184	-30.50848	146.98997	320.79654	-23.88847	-245.90466	424.46176	-375.52524	-310.31322	320.47172	-384.23810	70.48548	803.23655	-31.31447	113.24177	698.16064	-31.29126	66.55151	658.63136	-2.83259	-34.40933	760.21124	-14.22434	11.06872	652.24461	-18.16142	-53.97714	718.74488	-407.02292	-79.68327	587.01437	-382.54325	-156.06544	743.50982	-359.76078	-180.39522	605.30816	-346.77258	47.97340	935.12502	-83.13069	-142.75643	969.29558	-155.53603	50.07701	903.29218	-334.30826	-149.44741	970.72342	-256.26446	-113.89827	1383.51873	-254.84523	-45.70889	1348.13399	-62.16695	-10.81091	1336.32561	-418.09035	17.93001	1338.26303	-213.32061	29.03365	1336.66771	-256.21713	-74.75687	1222.65302	13.01489	-154.13416	1015.76145	-18.54547	-154.28990	1040.67994	50.03729	-70.81000	930.28920	92.71556	-16.53483	808.04448	118.68041	-47.44389	798.67107	131.56236	36.82890	1229.71490	-470.59813	32.76557	987.27047	-443.06204	67.67918	1022.60461	-505.92789	167.24071	969.49371	-475.74839	278.07141	860.17131	-454.58653	263.42621	845.54062	-484.03229	-29.74565	854.56409	-96.93981	-35.39508	837.31097	-302.59372	-17.45254	842.61521	-114.33198	-28.52571	844.96913	-281.04566	
4	0.03000000	160.97255	493.49491	-42.00713	221.23602	442.61795	-55.74457	258.20798	98.85922	-42.45051	199.02654	60.64791	-78.95399	373.79139	59.78820	-19.03263	413.59435	100.95384	-72.51579	-140.57627	468.95198	-360.40116	-160.50181	368.26065	-372.15970	-379.74836	143.56297	-359.10533	-458.51961	128.73758	-314.26147	-314.14547	48.06689	-412.68333	-262.11658	54.67495	-360.55245	232.07440	329.22084	-27.97649	142.78175	432.55147	-27.87509	157.54178	320.73932	-22.20567	-230.07236	425.36918	-373.49811	-298.00213	323.62111	-382.67738	85.30037	804.75279	-29.14459	128.03204	699.59271	-29.10105	81.93038	659.91686	-0.11834	-19.53625	761.87411	-10.89168	25.43573	653.83203	-14.68241	-39.61443	717.41958	-404.21786	-64.07870	585.37568	-380.17148	-141.43383	741.26513	-356.14919	-164.82355	602.89911	-343.78915	62.18102	936.04259	-81.23239	-128.98499	969.53622	-153.26489	63.75887	902.29867	-332.21833	-135.67730	969.74401	-253.95815	-100.33595	1383.08353	-250.67482	-32.07199	1345.95679	-58.24039	2.79765	1336.97736	-414.31410	31.42463	1337.69731	-209.37932	42.55123	1336.56456	-252.29977	-60.46693	1219.72248	15.93240	-139.51669	1012.97011	-17.29924	-139.75963	1037.34568	51.42574	-57.39246	926.23650	93.92332	-4.20446	803.35136	119.34353	-35.31469	794.11814	132.00398	50.03693	1230.30821	-467.01121	45.20159	987.90712	-439.77465	79.24585	1023.04776	-503.28483	179.07932	969.66024	-473.60263	289.72159	860.09747	-452.79483	274.92591	845.48302	-482.12018	-15.39232	855.28385	-94.13678	-21.58761	836.37614	-299.63051	-3.57280	843.75609	-111.38529	-14.65574	844.09181	-278.15601	
5	0.04000000	174.64964	494.22526	-39.71468	233.55836	441.53186	-53.98871	262.26271	97.27707	-42.43149	201.43986	62.12860	-79.56341	376.08800	54.76674	-19.06819	417.64451	94.19524	-72.65800	-122.40507	466.87649	-358.34801	-145.20891	366.84182	-370.64125	-371.96534	150.02971	-358.31935	-450.90545	139.70586	-313.10198	-312.15110	50.43608	-411.91886	-259.65410	54.21681	-360.39828	242.42476	327.85290	-26.56206	155.24612	432.98194	-25.37402	167.72256	320.84244	-20.50328	-212.75367	426.28959	-371.48318	-284.18456	326.96401	-381.06760	99.98907	806.39206	-26.80714	142.69825	701.12049	-26.87859	97.26137	661.35924	2.71756	-4.70861	763.60314	-7.44948	39.93414	655.45584	-11.05728	-24.58333	716.20206	-401.15013	-47.37567	583.75163	-377.71297	-126.30944	738.73472	-352.45610	-148.20138	600.09926	-340.79997	76.37004	937.31904	-79.22346	-115.15645	969.98253	-150.94750	77.56076	901.65812	-329.90120	-121.86522	968.99574	-251.59393	-86.81800	1382.85405	-246.46920	-18.24215	1344.01004	-54.33303	16.27216	1337.81315	-410.54742	44.97490	1337.26348	-205.45800	56.02540	1336.61903	-248.44239	-45.86937	1217.05252	18.82391	-124.74460	1010.44945	-15.95852	-124.93989	1034.28809	52.93902	-43.52240	922.49837	95.05859	8.69834	799.02477	119.88021	-22.55581	789.91262	132.33990	62.87277	1231.01372	-463.56035	57.04619	988.69745	-436.46285	90.30306	1023.55177	-500.60432	190.33178	969.78885	-471.42823	300.66015	859.83994	-450.95091	285.70925	845.26614	-480.14958	-0.98508	856.31621	-91.21504	-7.61053	835.73686	-296.53878	10.44793	845.20430	-108.33041	-0.66536	843.56430	-275.06796	
6	0.05000000	188.06582	495.00931	-37.52267	245.34842	440.49810	-52.40461	265.66688	96.03649	-42.53182	203.44229	63.29981	-80.05532	377.87256	50.79578	-19.02883	420.86853	88.42456	-72.86578	-102.62209	464.59687	-356.43091	-128.36791	365.39139	-369.20787	-362.57563	157.17616	-357.36045	-441.19173	151.94365	-311.49996	-309.62792	53.57592	-410.93604	-256.74880	53.96515	-360.17586	252.21846	326.61445	-25.27691	167.28375	433.56028	-23.00290	177.43368	321.13407	-18.79185	-193.75983	427.19282	-369.49893	-268.67069	330.49545	-379.39240	114.49468	808.14413	-24.31749	157.13724	702.72774	-24.60176	112.34333	662.96662	5.64913	9.98169	765.45948	-3.92124	54.39927	657.16159	-7.35982	-8.83114	715.08920	-397.85659	-29.46295	582.14110	-375.20234	-110.63955	735.85720	-348.71202	-130.42710	596.86940	-337.84798	90.47235	938.90685	-77.06533	-101.33270	970.64624	-148.59207	91.44530	901.40212	-327.33561	-108.06413	968.49256	-249.19352	-73.37829	1382.85431	-242.23704	-4.22578	1342.33789	-50.46071	29.55314	1338.83666	-406.81844	58.56285	1336.98539	-201.58240	69.43058	1336.83274	-244.66079	-30.91034	1214.69379	21.66022	-109.80056	1008.23817	-14.51003	-109.79685	1031.54175	54.58311	-29.14728	919.12056	96.10687	22.23211	795.11243	120.26266	-9.08880	786.10671	132.55205	75.27816	1231.83241	-460.26885	68.23408	989.62636	-433.16108	100.79101	1024.11843	-497.90302	200.93199	969.86909	-469.22054	310.80087	859.38001	-449.04574	295.69175	844.86927	-478.11654	13.38592	857.63315	-88.18560	6.48901	835.41872	-293.33574	24.52122	846.97129	-105.14393	13.37314	843.40328	-271.76111	
